<?xml version="1.0" encoding="utf-8"?>
<!-- Generator: Adobe Illustrator 26.0.2, SVG Export Plug-In . SVG Version: 6.00 Build 0)  -->
<svg version="1.1" id="Layer_1" xmlns="http://www.w3.org/2000/svg" xmlns:xlink="http://www.w3.org/1999/xlink" x="0px" y="0px"
	 viewBox="0 0 276.05 186.56" style="enable-background:new 0 0 276.05 186.56;" xml:space="preserve">
<style type="text/css">
	.st0{fill:#15162E;}
	.st1{fill:#FEC803;}
	.st2{fill:#070707;}
</style>
<g>
	<path class="st0" d="M90.8,35.35c0.62,0.14,1.21,0.31,1.77,0.52c0.55,0.21,1,0.59,1.35,1.14c0.42,0.76,0.48,1.42,0.21,1.98
		c-0.28,0.56-0.73,1.14-1.35,1.77c-3.05,3.53-5.92,7.03-8.63,10.5c-0.62,0.83-1.27,1.7-1.92,2.6c-0.66,0.9-1.34,1.73-2.03,2.49
		c-0.56,0.62-1.14,1.35-1.77,2.18c-0.62,0.83-1.21,1.65-1.77,2.44c-0.56,0.8-1.06,1.53-1.51,2.18c-0.45,0.66-0.78,1.16-0.99,1.51
		c1.04,2.22,2.41,4.78,4.11,7.69c1.7,2.91,3.53,5.91,5.51,8.99c1.98,3.08,3.97,6.06,5.98,8.94c2.01,2.88,3.85,5.39,5.51,7.54
		c0.55,0.76,1.23,1.7,2.03,2.81c0.8,1.11,1.51,2.01,2.13,2.7l2.18,2.7c-0.56,0.76-1.13,1.39-1.71,1.87c-0.59,0.48-1.06,0.8-1.4,0.94
		c-0.76,0.42-1.65,0.55-2.65,0.42c-1.01-0.14-1.96-0.42-2.86-0.83c-1.32-0.69-2.6-1.7-3.85-3.01c-1.25-1.32-2.25-2.56-3.01-3.74
		c-1.8-2.56-3.53-5.23-5.2-8c-1.66-2.77-3.22-5.51-4.68-8.21c-1.46-2.7-2.74-5.35-3.85-7.95c-1.11-2.6-1.98-5.01-2.6-7.22
		l-2.29,4.05c-1.87,2.63-3.17,5.53-3.9,8.68c-0.73,3.15-1.44,6.39-2.13,9.72c-0.14,1.25-0.21,2.55-0.21,3.9c0,1.35,0,2.82,0,4.42
		c-0.49,0.83-1.32,1.44-2.49,1.82c-1.18,0.38-2.25,0.4-3.22,0.05c-2.56-0.76-4.64-1.72-6.24-2.86c-1.59-1.14-2.32-2.44-2.18-3.9
		c0-2.29,0-4.43,0-6.44c0-2.01,0-4.05,0-6.13c0-2.08,0.02-4.23,0.05-6.44c0.03-2.22,0.09-4.68,0.16-7.38c0-2.63,0.02-5.56,0.05-8.78
		c0.03-3.22,0.1-6.5,0.21-9.82c0.1-3.33,0.19-6.62,0.26-9.87c0.07-3.26,0.17-6.24,0.31-8.94c0.48-0.07,1.14-0.14,1.97-0.21
		c0.83-0.07,1.72-0.07,2.65,0c0.94,0.07,1.82,0.17,2.65,0.31c0.83,0.14,1.49,0.35,1.97,0.62c0.9,0.49,1.35,1.14,1.35,1.98
		c0.42,2.01,0.62,4.05,0.62,6.13c0.14,1.66,0.22,3.57,0.26,5.72c0.03,2.15,0.05,4.35,0.05,6.6c0,2.25,0,4.45,0,6.6
		c0,2.15,0.07,4.09,0.21,5.82v5.41c0.42-0.69,0.94-1.52,1.56-2.49c0.62-0.97,1.28-1.94,1.98-2.91c0.69-0.97,1.37-1.89,2.03-2.75
		c0.66-0.87,1.2-1.58,1.61-2.13c1.04-1.39,2.23-2.94,3.59-4.68c1.35-1.73,2.7-3.48,4.05-5.25c1.35-1.77,2.67-3.53,3.95-5.3
		c1.28-1.77,2.41-3.38,3.38-4.83c0.48-0.69,1.09-1.4,1.82-2.13c0.73-0.73,1.44-1.33,2.13-1.82c0.97-0.69,1.77-1.16,2.39-1.4
		C89.03,35.36,89.82,35.28,90.8,35.35z"/>
	<path class="st1" d="M154.46,35.35c0.62,0.14,1.21,0.31,1.77,0.52c0.55,0.21,1,0.59,1.35,1.14c0.42,0.76,0.48,1.42,0.21,1.98
		c-0.28,0.56-0.73,1.14-1.35,1.77c-3.05,3.53-5.93,7.03-8.63,10.5c-0.62,0.83-1.26,1.7-1.92,2.6c-0.66,0.9-1.33,1.73-2.03,2.49
		c-0.56,0.62-1.14,1.35-1.77,2.18c-0.62,0.83-1.21,1.65-1.77,2.44c-0.56,0.8-1.06,1.53-1.51,2.18c-0.45,0.66-0.78,1.16-0.99,1.51
		c1.04,2.22,2.41,4.78,4.11,7.69c1.7,2.91,3.53,5.91,5.51,8.99c1.97,3.08,3.97,6.06,5.98,8.94c2.01,2.88,3.85,5.39,5.51,7.54
		c0.55,0.76,1.23,1.7,2.03,2.81c0.8,1.11,1.51,2.01,2.13,2.7l2.18,2.7c-0.56,0.76-1.13,1.39-1.72,1.87c-0.59,0.48-1.06,0.8-1.4,0.94
		c-0.76,0.42-1.65,0.55-2.65,0.42c-1.01-0.14-1.96-0.42-2.86-0.83c-1.32-0.69-2.6-1.7-3.85-3.01c-1.25-1.32-2.25-2.56-3.01-3.74
		c-1.8-2.56-3.53-5.23-5.2-8c-1.66-2.77-3.22-5.51-4.68-8.21c-1.46-2.7-2.74-5.35-3.85-7.95c-1.11-2.6-1.98-5.01-2.6-7.22
		l-2.29,4.05c-1.87,2.63-3.17,5.53-3.9,8.68c-0.73,3.15-1.44,6.39-2.13,9.72c-0.14,1.25-0.21,2.55-0.21,3.9c0,1.35,0,2.82,0,4.42
		c-0.49,0.83-1.32,1.44-2.49,1.82c-1.18,0.38-2.25,0.4-3.22,0.05c-2.56-0.76-4.64-1.72-6.24-2.86c-1.59-1.14-2.32-2.44-2.18-3.9
		c0-2.29,0-4.43,0-6.44c0-2.01,0-4.05,0-6.13c0-2.08,0.02-4.23,0.05-6.44c0.03-2.22,0.09-4.68,0.16-7.38c0-2.63,0.02-5.56,0.05-8.78
		c0.03-3.22,0.1-6.5,0.21-9.82c0.1-3.33,0.19-6.62,0.26-9.87c0.07-3.26,0.17-6.24,0.31-8.94c0.48-0.07,1.14-0.14,1.97-0.21
		c0.83-0.07,1.72-0.07,2.65,0c0.94,0.07,1.82,0.17,2.65,0.31c0.83,0.14,1.49,0.35,1.97,0.62c0.9,0.49,1.35,1.14,1.35,1.98
		c0.42,2.01,0.62,4.05,0.62,6.13c0.14,1.66,0.22,3.57,0.26,5.72c0.03,2.15,0.05,4.35,0.05,6.6c0,2.25,0,4.45,0,6.6
		c0,2.15,0.07,4.09,0.21,5.82v5.41c0.42-0.69,0.94-1.52,1.56-2.49c0.62-0.97,1.28-1.94,1.98-2.91c0.69-0.97,1.37-1.89,2.03-2.75
		c0.66-0.87,1.2-1.58,1.61-2.13c1.04-1.39,2.23-2.94,3.59-4.68c1.35-1.73,2.7-3.48,4.05-5.25c1.35-1.77,2.67-3.53,3.95-5.3
		c1.28-1.77,2.41-3.38,3.38-4.83c0.48-0.69,1.09-1.4,1.82-2.13c0.73-0.73,1.44-1.33,2.13-1.82c0.97-0.69,1.77-1.16,2.39-1.4
		C152.69,35.36,153.49,35.28,154.46,35.35z"/>
	<path class="st0" d="M218.12,35.35c0.62,0.14,1.21,0.31,1.77,0.52c0.55,0.21,1,0.59,1.35,1.14c0.42,0.76,0.48,1.42,0.21,1.98
		c-0.28,0.56-0.73,1.14-1.35,1.77c-3.05,3.53-5.93,7.03-8.63,10.5c-0.62,0.83-1.26,1.7-1.92,2.6c-0.66,0.9-1.33,1.73-2.03,2.49
		c-0.56,0.62-1.14,1.35-1.77,2.18c-0.62,0.83-1.21,1.65-1.77,2.44c-0.56,0.8-1.06,1.53-1.51,2.18c-0.45,0.66-0.78,1.16-0.99,1.51
		c1.04,2.22,2.41,4.78,4.11,7.69c1.7,2.91,3.53,5.91,5.51,8.99c1.98,3.08,3.97,6.06,5.98,8.94c2.01,2.88,3.85,5.39,5.51,7.54
		c0.55,0.76,1.23,1.7,2.03,2.81c0.8,1.11,1.51,2.01,2.13,2.7l2.18,2.7c-0.56,0.76-1.13,1.39-1.72,1.87c-0.59,0.48-1.06,0.8-1.4,0.94
		c-0.76,0.42-1.65,0.55-2.65,0.42c-1.01-0.14-1.96-0.42-2.86-0.83c-1.32-0.69-2.6-1.7-3.85-3.01c-1.25-1.32-2.25-2.56-3.01-3.74
		c-1.8-2.56-3.53-5.23-5.2-8c-1.66-2.77-3.22-5.51-4.68-8.21c-1.46-2.7-2.74-5.35-3.85-7.95c-1.11-2.6-1.98-5.01-2.6-7.22
		l-2.29,4.05c-1.87,2.63-3.17,5.53-3.9,8.68c-0.73,3.15-1.44,6.39-2.13,9.72c-0.14,1.25-0.21,2.55-0.21,3.9c0,1.35,0,2.82,0,4.42
		c-0.49,0.83-1.32,1.44-2.49,1.82c-1.18,0.38-2.25,0.4-3.22,0.05c-2.57-0.76-4.64-1.72-6.24-2.86c-1.59-1.14-2.32-2.44-2.18-3.9
		c0-2.29,0-4.43,0-6.44c0-2.01,0-4.05,0-6.13c0-2.08,0.02-4.23,0.05-6.44c0.03-2.22,0.09-4.68,0.16-7.38c0-2.63,0.02-5.56,0.05-8.78
		c0.03-3.22,0.1-6.5,0.21-9.82c0.1-3.33,0.19-6.62,0.26-9.87c0.07-3.26,0.17-6.24,0.31-8.94c0.48-0.07,1.14-0.14,1.98-0.21
		c0.83-0.07,1.71-0.07,2.65,0c0.94,0.07,1.82,0.17,2.65,0.31c0.83,0.14,1.49,0.35,1.98,0.62c0.9,0.49,1.35,1.14,1.35,1.98
		c0.42,2.01,0.62,4.05,0.62,6.13c0.14,1.66,0.22,3.57,0.26,5.72c0.03,2.15,0.05,4.35,0.05,6.6c0,2.25,0,4.45,0,6.6
		c0,2.15,0.07,4.09,0.21,5.82v5.41c0.42-0.69,0.94-1.52,1.56-2.49c0.62-0.97,1.28-1.94,1.98-2.91c0.69-0.97,1.37-1.89,2.03-2.75
		c0.66-0.87,1.2-1.58,1.61-2.13c1.04-1.39,2.24-2.94,3.59-4.68c1.35-1.73,2.7-3.48,4.05-5.25c1.35-1.77,2.67-3.53,3.95-5.3
		c1.28-1.77,2.41-3.38,3.38-4.83c0.48-0.69,1.09-1.4,1.82-2.13c0.73-0.73,1.44-1.33,2.13-1.82c0.97-0.69,1.77-1.16,2.39-1.4
		C216.35,35.36,217.15,35.28,218.12,35.35z"/>
</g>
<g>
	<path d="M1007.3,163.01c-0.86,7.26-1.53,14.55-2.61,21.78c-2.04,13.68-4.25,27.34-10.8,39.81c-5.89,11.22-15.73,16.87-27.63,19.86
		c-17.64,4.43-35.64,6.15-53.72,6.58c-43.97,1.04-87.93,2.49-131.95,1.17c-14.19-0.43-28.46,1.61-42.68,2.68
		c-1.89,0.14-3.74,1.2-5.55,1.98c-24.05,10.44-47.61,22.14-72.87,29.54c-9.44,2.77-19.21,4.42-28.82,6.58
		c-2.18,0.49-5.17,1.63-5.73-1.3c-0.37-1.94,1.21-4.64,2.63-6.45c2.14-2.74,4.94-4.95,7.34-7.51c0.72-0.77,1.02-1.95,1.74-3.41
		c-6.76,1.3-13.02,2.72-19.35,3.6c-2.35,0.33-6.28,0.19-7.03-1.14c-1.65-2.91,0.75-5.44,3.39-7.23c7.28-4.93,9.71-12.33,10.96-20.6
		c1-6.57-0.59-10.53-6.92-13.93c-5.51-2.97-9.68-8.44-14.41-12.84c-1.23-1.15-2.18-2.64-3.53-3.61
		c-12.52-8.95-19.31-21.5-20.91-36.36c-1.66-15.42-1.9-31-2.64-46.52c-1.05-22.03-2.24-44.07-2.9-66.12
		c-0.51-17.24-0.22-34.51-0.47-51.76c-0.05-3.37,1.65-4.61,4.44-4.98c11.05-1.47,22.07-3.42,33.17-4.17
		c32.16-2.16,64.33-4.42,96.54-5.56c61.63-2.19,123.29-4.27,184.98-2.33c19.5,0.61,39,1.58,58.47,2.78
		c8.01,0.49,16.01,1.71,23.9,3.17c11.56,2.14,11.51,2.36,13.48,14.11c3.11,0.95,6.32,1.9,9.51,2.92c3.04,0.97,4.51,3.07,4.69,6.3
		c1.15,20.33,2.35,40.65,3.57,60.97c0.52,8.72,1.13,17.43,1.7,26.15C1007.3,132.45,1007.3,147.73,1007.3,163.01z M623.6,270.13
		c4.76-1.14,9.01-2.07,13.21-3.17c20.68-5.45,40.11-14.15,59.56-22.82c8.35-3.72,16.56-8.76,25.35-10.29
		c14.24-2.48,28.88-3.15,43.38-3.52c19.08-0.48,38.19,0.39,57.27,0.11c29.55-0.44,59.1-1.19,88.64-2.16
		c13.39-0.44,26.79-1.2,39.84-4.89c12.81-3.63,22.15-10.52,25.89-24.03c4.62-16.67,8.1-33.6,8.32-50.83
		c0.36-28.12-0.13-56.27-0.85-84.39c-0.3-11.68-1.33-23.48-3.48-34.95c-2.6-13.89-0.57-12.8-14.27-16.21
		c-2.05-0.51-4.16-0.9-6.26-1.03c-26.65-1.74-53.28-4.21-79.95-4.93c-32.93-0.88-65.91-0.63-98.86-0.27
		c-55.7,0.61-111.38,2.17-166.78,8.6c-8.79,1.02-17.45,3.15-26.17,4.8c-4.17,0.79-6.18,3.3-6.41,7.6c-0.5,9.31-1.8,18.61-1.71,27.91
		c0.23,25.01,0.21,50.06,1.87,74.99c1.16,17.38,4.4,34.68,7.78,51.81c1.46,7.42,4.66,14.93,8.79,21.28
		c6.27,9.63,15.89,15.39,27.2,18.15c1.74,0.43,4.18,0.04,4.53,3.32C632.2,240.63,633,255.86,623.6,270.13z"/>
	<path d="M712.19,131.59c-8.57-0.07-13.19-3.28-15.23-9.62c-0.81-2.52-0.81-5.32-1.66-7.82c-1.8-5.32,1.26-8.5,4.75-11.39
		c3.73-3.09,8.05-3.93,12.65-2.11c8.32,3.27,13.35,16.36,9.42,24.37C719.7,129.95,715.38,131.44,712.19,131.59z"/>
	<path d="M854.78,122.29c-4.63-0.28-10.17-1.59-13.24-7.11c-3.35-6.03-0.38-11.74,1.85-17.35c0.24-0.6,0.95-1.48,1.39-1.45
		c6.26,0.36,12.66-3.44,18.82,1.35c5.37,4.17,8.02,10.13,6.1,16.18C867.99,119.33,862.99,122.4,854.78,122.29z"/>
	<path d="M768.93,108.37c0.27-2.03,0.4-4.15,0.88-6.2c0.19-0.85,1.07-2.15,1.69-2.19c6.54-0.36,13.05-4.86,19.67,0.53
		c4.46,3.63,7.98,12.3,6.2,17.77c-1.56,4.76-6.38,8.26-11.21,8.11C773.67,126,769.83,117.62,768.93,108.37z"/>
</g>
<g>
	<path class="st2" d="M276.05,103.58c-0.55,4.61-0.98,9.24-1.66,13.84c-1.3,8.69-2.7,17.37-6.86,25.29
		c-3.74,7.13-9.99,10.72-17.55,12.62c-11.21,2.81-22.65,3.91-34.13,4.18c-27.94,0.66-55.87,1.58-83.84,0.74
		c-9.02-0.27-18.08,1.02-27.12,1.71c-1.2,0.09-2.38,0.76-3.52,1.26c-15.28,6.63-30.25,14.07-46.3,18.77
		c-6,1.76-12.2,2.81-18.31,4.18c-1.39,0.31-3.28,1.03-3.64-0.82c-0.24-1.23,0.77-2.95,1.67-4.1c1.36-1.74,3.14-3.15,4.66-4.77
		c0.46-0.49,0.65-1.24,1.11-2.16c-4.3,0.83-8.27,1.73-12.3,2.29c-1.49,0.21-3.99,0.12-4.47-0.72c-1.05-1.85,0.48-3.46,2.16-4.59
		c4.63-3.13,6.17-7.83,6.97-13.09c0.63-4.18-0.38-6.69-4.4-8.85c-3.5-1.89-6.15-5.36-9.16-8.16c-0.78-0.73-1.39-1.68-2.24-2.29
		c-7.95-5.69-12.27-13.66-13.29-23.11c-1.06-9.8-1.21-19.7-1.68-29.56c-0.67-14-1.43-28-1.84-42.01C-0.03,33.25,0.15,22.28,0,11.32
		c-0.03-2.14,1.05-2.93,2.82-3.16C9.84,7.22,16.85,5.98,23.9,5.5c20.43-1.37,40.88-2.81,61.34-3.54
		c39.16-1.39,78.34-2.71,117.53-1.48c12.39,0.39,24.78,1,37.15,1.77c5.09,0.31,10.17,1.09,15.19,2.02c7.34,1.36,7.32,1.5,8.56,8.97
		c1.97,0.6,4.01,1.21,6.04,1.85c1.93,0.62,2.86,1.95,2.98,4c0.73,12.91,1.5,25.83,2.27,38.74c0.33,5.54,0.72,11.08,1.08,16.62
		C276.05,84.16,276.05,93.87,276.05,103.58z M32.25,171.64c3.03-0.72,5.73-1.31,8.39-2.02c13.14-3.46,25.49-8.99,37.85-14.5
		c5.31-2.37,10.52-5.57,16.1-6.54c9.05-1.58,18.35-2,27.57-2.24c12.12-0.31,24.26,0.25,36.39,0.07c18.78-0.28,37.55-0.76,56.32-1.37
		c8.51-0.28,17.02-0.76,25.32-3.11c8.14-2.31,14.07-6.69,16.45-15.27c2.94-10.59,5.14-21.35,5.28-32.3
		c0.23-17.87-0.08-35.75-0.54-53.62c-0.19-7.42-0.85-14.92-2.21-22.21c-1.65-8.83-0.36-8.13-9.07-10.3
		c-1.3-0.32-2.64-0.57-3.98-0.66c-16.93-1.11-33.85-2.68-50.8-3.13c-20.92-0.56-41.88-0.4-62.81-0.17
		C97.13,4.67,61.75,5.66,26.55,9.75c-5.58,0.65-11.09,2-16.63,3.05C7.28,13.3,6,14.9,5.85,17.63c-0.31,5.91-1.14,11.83-1.09,17.73
		C4.91,51.25,4.9,67.17,5.95,83.01c0.74,11.04,2.8,22.04,4.94,32.92c0.93,4.71,2.96,9.49,5.59,13.52
		c3.98,6.12,10.1,9.78,17.28,11.53c1.11,0.27,2.65,0.02,2.88,2.11C37.72,152.9,38.23,162.57,32.25,171.64z"/>
</g>
</svg>
